# xmcd CD database file
# Copyright (C) 1997 Ti Kan
# 
# Track frame offsets:
#     150
#     22195
#     46122
#     66845
#     85647
#     105872
#     124575
#     139662
#     160160
#     174050
#     195257
# 
# Disc length: 2835 seconds
# 
# Revision: 1
# Processed by: cddbd v1.4b41PL1 Copyright (c) Steve Scherf et al.
# Submitted via: DiscPlay 4.0.4
# 
DISCID=790b110b
DTITLE=State of Art - Community
DYEAR=1900
DGENRE=
TTITLE0=Unity
TTITLE1=Understanding
TTITLE2=Laughing at the Years
TTITLE3=Police State
TTITLE4=I Like
TTITLE5=Beating Heart
TTITLE6=The Healing
TTITLE7=Know Who You Are
TTITLE8=27 Years
TTITLE9=Mother
TTITLE10=Heaven
EXTD=
EXTT0=
EXTT1=
EXTT2=
EXTT3=
EXTT4=
EXTT5=
EXTT6=
EXTT7=
EXTT8=
EXTT9=
EXTT10=
PLAYORDER=
